<svg width="22" height="17" viewBox="0 0 22 17" fill="none" xmlns="http://www.w3.org/2000/svg">
<path d="M14.4014 0H10.6475H6.89361C3.27166 0 0.261719 2.94431 0.261719 6.5625C0.261719 9.863 2.77589 12.6023 5.95513 13.0582V15.9375C5.95513 16.3165 6.18331 16.6589 6.53436 16.8036C6.88053 16.9479 7.28658 16.8705 7.55717 16.6003L10.6475 13.5132L11.0361 13.125H14.4014C18.0234 13.125 21.0333 10.1807 21.0333 6.5625C21.0333 2.94431 18.0234 0 14.4014 0Z" fill="#EDC701"/>
<path d="M6.89551 7.5C7.41381 7.5 7.83398 7.08027 7.83398 6.5625C7.83398 6.04473 7.41381 5.625 6.89551 5.625C6.3772 5.625 5.95703 6.04473 5.95703 6.5625C5.95703 7.08027 6.3772 7.5 6.89551 7.5Z" fill="white"/>
<path d="M10.6494 7.5C11.1677 7.5 11.5879 7.08027 11.5879 6.5625C11.5879 6.04473 11.1677 5.625 10.6494 5.625C10.1311 5.625 9.71094 6.04473 9.71094 6.5625C9.71094 7.08027 10.1311 7.5 10.6494 7.5Z" fill="white" fill-opacity="0.34"/>
<path d="M11.5859 6.5625C11.5859 6.04475 11.1662 5.625 10.6484 5.625V7.5C11.1662 7.5 11.5859 7.08025 11.5859 6.5625Z" fill="white"/>
<path d="M14.4033 7.5C14.9216 7.5 15.3418 7.08027 15.3418 6.5625C15.3418 6.04473 14.9216 5.625 14.4033 5.625C13.885 5.625 13.4648 6.04473 13.4648 6.5625C13.4648 7.08027 13.885 7.5 14.4033 7.5Z" fill="white"/>
</svg>
