<svg width="12" height="10" viewBox="0 0 12 10" fill="none" xmlns="http://www.w3.org/2000/svg">
<path d="M11.196 1.116C10.284 1.948 9.396 2.916 8.532 4.02C7.78 4.972 7.104 5.948 6.504 6.948C5.96 7.844 5.564 8.612 5.316 9.252C5.308 9.276 5.292 9.296 5.268 9.312C5.244 9.336 5.216 9.348 5.184 9.348C5.176 9.356 5.168 9.36 5.16 9.36C5.104 9.36 5.064 9.344 5.04 9.312L0.756 4.956C0.748 4.948 0.852 4.844 1.068 4.644C1.284 4.436 1.496 4.248 1.704 4.08C1.936 3.888 2.06 3.8 2.076 3.816L4.428 5.664C5.116 4.856 5.888 4.056 6.744 3.264C8.032 2.08 9.36 1.072 10.728 0.24C10.752 0.24 10.844 0.352 11.004 0.576L11.244 0.924C11.252 0.956 11.252 0.992 11.244 1.032C11.236 1.064 11.22 1.092 11.196 1.116Z" fill="#EDC701"/>
</svg>
